<svg width="116px" height="127px" viewBox="0 0 116 127" version="1.1" xmlns="http://www.w3.org/2000/svg" xmlns:xlink="http://www.w3.org/1999/xlink">
    <!-- Generator: Sketch 49.2 (51160) - http://www.bohemiancoding.com/sketch -->
    <desc>Created with Sketch.</desc>
    <defs></defs>
    <g id="Page-1" stroke="none" stroke-width="1" fill="none" fill-rule="evenodd">
        <g id="Font-Awesome-Icon-Pack" transform="translate(-2558.000000, -1967.000000)" fill="#ffffff">
            <g id="trash29" transform="translate(2558.843750, 1967.500000)">
                <g id="Group" fill="none">
                    <path d="M113.623,22.019 C113.135,21.531 112.51,21.286 111.75,21.286 L86.574,21.286 L80.871,7.681 C80.057,5.671 78.591,3.96 76.473,2.548 C74.354,1.136 72.208,0.43 70.035,0.43 L43.964,0.43 C41.792,0.43 39.646,1.136 37.528,2.548 C35.409,3.96 33.943,5.671 33.128,7.681 L27.425,21.286 L2.25,21.286 C1.489,21.286 0.865,21.531 0.376,22.019 C-0.112,22.508 -0.357,23.133 -0.357,23.893 L-0.357,29.108 C-0.357,29.868 -0.113,30.493 0.376,30.981 C0.865,31.47 1.49,31.714 2.25,31.714 L10.071,31.714 L10.071,109.276 C10.071,113.785 11.347,117.628 13.9,120.804 C16.453,123.983 19.522,125.571 23.107,125.571 L90.893,125.571 C94.479,125.571 97.547,123.928 100.1,120.643 C102.653,117.356 103.928,113.459 103.928,108.952 L103.928,31.714 L111.75,31.714 C112.51,31.714 113.135,31.47 113.623,30.981 C114.111,30.493 114.357,29.868 114.357,29.108 L114.357,23.893 C114.357,23.133 114.111,22.508 113.623,22.019 L113.623,22.019 Z M42.742,11.753 C43.122,11.264 43.584,10.965 44.127,10.857 L69.954,10.857 C70.497,10.966 70.959,11.265 71.339,11.753 L75.25,21.285 L38.75,21.285 L42.742,11.753 L42.742,11.753 Z M93.5,108.951 C93.5,110.146 93.311,111.246 92.93,112.25 C92.549,113.255 92.155,113.988 91.748,114.45 C91.341,114.912 91.057,115.142 90.893,115.142 L23.107,115.142 C22.944,115.142 22.66,114.912 22.252,114.45 C21.844,113.988 21.45,113.255 21.07,112.25 C20.69,111.246 20.5,110.145 20.5,108.951 L20.5,31.714 L93.5,31.714 L93.5,108.951 L93.5,108.951 Z" id="Shape" fill="#000000"></path>
                    <path d="M33.536,99.5 L38.75,99.5 C39.511,99.5 40.136,99.256 40.624,98.768 C41.112,98.278 41.357,97.655 41.357,96.893 L41.357,49.964 C41.357,49.204 41.112,48.579 40.624,48.09 C40.135,47.602 39.511,47.358 38.75,47.358 L33.536,47.358 C32.775,47.358 32.151,47.602 31.662,48.09 C31.174,48.579 30.929,49.204 30.929,49.964 L30.929,96.893 C30.929,97.655 31.173,98.278 31.662,98.768 C32.151,99.256 32.775,99.5 33.536,99.5 L33.536,99.5 Z" id="Shape" fill="#000000"></path>
                    <path d="M54.393,99.5 L59.607,99.5 C60.368,99.5 60.993,99.256 61.48,98.768 C61.97,98.278 62.213,97.655 62.213,96.893 L62.213,49.964 C62.213,49.204 61.97,48.579 61.48,48.09 C60.993,47.602 60.368,47.358 59.607,47.358 L54.393,47.358 C53.633,47.358 53.008,47.602 52.519,48.09 C52.03,48.579 51.786,49.204 51.786,49.964 L51.786,96.893 C51.786,97.655 52.03,98.278 52.519,98.768 C53.008,99.256 53.633,99.5 54.393,99.5 L54.393,99.5 Z" id="Shape" fill="#000000"></path>
                    <path d="M75.25,99.5 L80.464,99.5 C81.225,99.5 81.85,99.256 82.338,98.768 C82.826,98.278 83.07,97.655 83.07,96.893 L83.07,49.964 C83.07,49.204 82.826,48.579 82.338,48.09 C81.85,47.602 81.225,47.358 80.464,47.358 L75.25,47.358 C74.489,47.358 73.865,47.602 73.376,48.09 C72.887,48.579 72.643,49.204 72.643,49.964 L72.643,96.893 C72.643,97.655 72.887,98.278 73.376,98.768 C73.865,99.256 74.489,99.5 75.25,99.5 L75.25,99.5 Z" id="Shape" fill="#000000"></path>
                </g>
            </g>
        </g>
    </g>
</svg>