<svg width="126px" height="127px" viewBox="0 0 126 127" version="1.1" xmlns="http://www.w3.org/2000/svg" xmlns:xlink="http://www.w3.org/1999/xlink">
    <!-- Generator: Sketch 49.2 (51160) - http://www.bohemiancoding.com/sketch -->
    <desc>Created with Sketch.</desc>
    <defs></defs>
    <g id="Page-1" stroke="none" stroke-width="1" fill="none" fill-rule="evenodd">
        <g id="Font-Awesome-Icon-Pack" transform="translate(-1623.000000, -735.000000)" fill="#ffffff">
            <g id="edit24" transform="translate(1622.843750, 735.500000)">
                <g id="Group" fill="none">
                    <path d="M118.686,7.313 C114.098,2.724 108.571,0.429 102.108,0.429 L23.893,0.429 C17.43,0.429 11.903,2.724 7.313,7.313 C2.724,11.903 0.429,17.43 0.429,23.893 L0.429,102.107 C0.429,108.57 2.724,114.097 7.313,118.687 C11.903,123.277 17.43,125.572 23.893,125.572 L102.107,125.572 C108.57,125.572 114.097,123.277 118.685,118.687 C123.275,114.097 125.57,108.57 125.57,102.107 L125.57,23.893 C125.57,17.43 123.275,11.902 118.686,7.313 L118.686,7.313 Z M44.75,104.714 L21.285,104.714 L21.285,81.25 L65.607,36.929 L89.07,60.393 L44.75,104.714 L44.75,104.714 Z M101.781,47.683 L94.286,55.179 L70.822,31.714 L78.316,24.219 C79.837,22.699 81.683,21.938 83.857,21.938 C86.029,21.938 87.876,22.698 89.396,24.219 L101.781,36.603 C103.301,38.123 104.062,39.97 104.062,42.143 C104.062,44.316 103.302,46.162 101.781,47.683 L101.781,47.683 Z" id="Shape" fill="#ffd400"></path>
                    <polygon id="Shape" fill="#ffd400" points="29.108 84.509 29.108 89.07 36.929 89.07 36.929 96.893 41.491 96.893 45.728 92.656 33.344 80.271"></polygon>
                    <path d="M40.922,72.451 C39.998,73.373 39.917,74.187 40.677,74.894 C41.383,75.655 42.198,75.574 43.121,74.65 L66.83,50.941 C67.753,50.019 67.834,49.204 67.074,48.498 C66.367,47.737 65.553,47.818 64.63,48.742 L40.922,72.451 L40.922,72.451 Z" id="Shape" fill="#ffd400"></path>
                </g>
            </g>
        </g>
    </g>
</svg>