<svg width="116px" height="115px" viewBox="0 0 116 115" version="1.1" xmlns="http://www.w3.org/2000/svg" xmlns:xlink="http://www.w3.org/1999/xlink">
    <!-- Generator: Sketch 49.2 (51160) - http://www.bohemiancoding.com/sketch -->
    <desc>Created with Sketch.</desc>
    <defs></defs>
    <g id="Page-1" stroke="none" stroke-width="1" fill="none" fill-rule="evenodd">
        <g id="Font-Awesome-Icon-Pack" transform="translate(-698.000000, -3029.000000)" fill="#4caf50">
            <g id="plus25" transform="translate(698.843750, 3029.500000)">
                <path d="M112.076,43.639 C110.555,42.118 108.708,41.358 106.535,41.358 L72.642,41.358 L72.642,7.464 C72.642,5.292 71.881,3.445 70.361,1.924 C68.84,0.404 66.994,-0.357 64.82,-0.357 L49.178,-0.357 C47.006,-0.357 45.159,0.403 43.638,1.924 C42.117,3.445 41.357,5.292 41.357,7.464 L41.357,41.358 L7.464,41.358 C5.292,41.358 3.445,42.118 1.924,43.639 C0.403,45.16 -0.357,47.006 -0.357,49.179 L-0.357,64.823 C-0.357,66.996 0.403,68.842 1.924,70.362 C3.445,71.883 5.292,72.643 7.464,72.643 L41.357,72.643 L41.357,106.538 C41.357,108.71 42.117,110.558 43.638,112.078 C45.159,113.598 47.006,114.358 49.178,114.358 L64.821,114.358 C66.995,114.358 68.841,113.598 70.362,112.078 C71.883,110.557 72.643,108.71 72.643,106.538 L72.643,72.643 L106.536,72.643 C108.709,72.643 110.556,71.883 112.077,70.362 C113.597,68.842 114.358,66.996 114.358,64.823 L114.358,49.179 C114.357,47.006 113.598,45.159 112.076,43.639 L112.076,43.639 Z" id="Shape"></path>
            </g>
        </g>
    </g>
</svg>