
<svg width="126px" height="127px" viewBox="0 0 126 127" version="1.1" xmlns="http://www.w3.org/2000/svg" xmlns:xlink="http://www.w3.org/1999/xlink">
    <!-- Generator: Sketch 49.2 (51160) - http://www.bohemiancoding.com/sketch -->
    <desc>Created with Sketch.</desc>
    <defs></defs>
    <g id="Page-1" stroke="none" stroke-width="1" fill="none" fill-rule="evenodd">
        <g id="Font-Awesome-Icon-Pack" transform="translate(-2925.000000, -1615.000000)" fill="#000000">
            <g id="save8" transform="translate(2924.843750, 1615.500000)">
                <path d="M123.941,34.972 C122.855,32.366 121.55,30.302 120.029,28.781 L97.217,5.969 C95.697,4.449 93.632,3.145 91.025,2.058 C88.419,0.972 86.029,0.429 83.857,0.429 L8.25,0.429 C6.078,0.429 4.231,1.189 2.71,2.71 C1.189,4.23 0.429,6.077 0.429,8.25 L0.429,117.75 C0.429,119.923 1.189,121.77 2.71,123.29 C4.231,124.81 6.078,125.571 8.25,125.571 L117.75,125.571 C119.923,125.571 121.77,124.81 123.29,123.29 C124.81,121.77 125.57,119.923 125.57,117.75 L125.57,42.143 C125.57,39.97 125.027,37.58 123.941,34.972 L123.941,34.972 Z M52.572,13.464 C52.572,12.758 52.83,12.148 53.346,11.631 C53.862,11.116 54.473,10.858 55.179,10.858 L70.823,10.858 C71.527,10.858 72.138,11.115 72.654,11.631 C73.171,12.148 73.429,12.758 73.429,13.464 L73.429,39.535 C73.429,40.242 73.17,40.853 72.654,41.369 C72.138,41.884 71.527,42.142 70.823,42.142 L55.179,42.142 C54.473,42.142 53.862,41.885 53.346,41.369 C52.83,40.852 52.572,40.242 52.572,39.535 L52.572,13.464 L52.572,13.464 Z M94.286,115.143 L31.714,115.143 L31.714,83.857 L94.286,83.857 L94.286,115.143 L94.286,115.143 Z M115.145,115.143 L104.714,115.143 L104.713,115.143 L104.713,81.249 C104.713,79.076 103.953,77.23 102.432,75.709 C100.912,74.188 99.065,73.428 96.893,73.428 L29.107,73.428 C26.934,73.428 25.087,74.188 23.566,75.709 C22.046,77.229 21.285,79.076 21.285,81.249 L21.285,115.143 L10.857,115.143 L10.857,10.857 L21.285,10.857 L21.285,44.75 C21.285,46.923 22.045,48.769 23.566,50.29 C25.087,51.81 26.934,52.571 29.107,52.571 L76.036,52.571 C78.208,52.571 80.057,51.81 81.576,50.29 C83.095,48.77 83.857,46.923 83.857,44.75 L83.857,10.857 C84.671,10.857 85.73,11.128 87.034,11.671 C88.339,12.214 89.262,12.757 89.805,13.3 L112.7,36.195 C113.244,36.738 113.787,37.676 114.33,39.006 C114.874,40.337 115.145,41.383 115.145,42.143 L115.145,115.143 L115.145,115.143 Z" id="Shape"></path>
            </g>
        </g>
    </g>
</svg>